<?xml version="1.0" encoding="UTF-8" standalone="no"?>
<svg
   xmlns:dc="http://purl.org/dc/elements/1.1/"
   xmlns:cc="http://creativecommons.org/ns#"
   xmlns:rdf="http://www.w3.org/1999/02/22-rdf-syntax-ns#"
   xmlns:svg="http://www.w3.org/2000/svg"
   xmlns="http://www.w3.org/2000/svg"
   xmlns:sodipodi="http://sodipodi.sourceforge.net/DTD/sodipodi-0.dtd"
   xmlns:inkscape="http://www.inkscape.org/namespaces/inkscape"
   id="generated_logo_1"
   viewBox="0 0 307.78867 100"
   version="1.1"
   sodipodi:docname="logo_transparent.svg"
   width="307.78867"
   height="100">
  <metadata
     id="metadata37">
    <rdf:RDF>
      <cc:Work
         rdf:about="">
        <dc:format>image/svg+xml</dc:format>
        <dc:type
           rdf:resource="http://purl.org/dc/dcmitype/StillImage" />
      </cc:Work>
    </rdf:RDF>
  </metadata>
  <defs
     id="defs35" />
  <sodipodi:namedview
     pagecolor="#ffffff"
     bordercolor="#666666"
     borderopacity="1"
     objecttolerance="10"
     gridtolerance="10"
     guidetolerance="10"
     inkscape:pageopacity="0"
     inkscape:pageshadow="2"
     inkscape:window-width="640"
     inkscape:window-height="480"
     id="namedview33" />
  <style
     type="text/css"
     class="styleimportlogofontmain"
     id="style2">@import url(&quot;https://fonts.googleapis.com/css2?family=Open Sans:wght@300;400;700&quot;);#generated_logo_1 .maintypo { font-family: Open Sans; font-weight: 700; }</style>
  <style
     type="text/css"
     class="styleimportlogofontsub"
     id="style4">@import url(&quot;https://fonts.googleapis.com/css2?family=Oswald:wght@300;400;500;700&quot;);#generated_logo_1 .subtypo { font-family: Oswald; font-weight: 300; }</style>
  <style
     type="text/css"
     class="styleimportlogopos"
     id="style6" />
  <g
     id="logo-elements"
     transform="translate(50,50)"
     transform-box="stroke-box">
    <g
       id="iconcontainer"
       transform-origin="center"
       transform-box="fill-box">
      <g
         class="iconBGGrpM"
         id="g10">
        <g
           class="iconBGGrp"
           transform="matrix(0.1,0,0,0.1,-50,-50)"
           id="g8" />
      </g>
      <g
         class="iconGrpM"
         id="g19">
        <g
           class="iconGrp"
           transform="matrix(0.1,0,0,0.1,-50,-50)"
           id="g17">
          <g
             class="lg_icon"
             id="lg_icon_81"
             stroke="none"
             stroke-width="1"
             fill="none"
             fill-rule="evenodd">
            <g
               id="0081">
              <path
                 id="FRAME"
                 style="fill:none"
                 d="M 0,0 V 1000 H 1000 V 0 Z" />
              <g
                 id="Icon"
                 transform="translate(65,300)"
                 fill="#f2cb05">
                <path
                   id="Fill-1"
                   d="M 559.287,349.999 499.288,230 579.287,270 522.156,90 699.288,320 719.287,266.635 868.128,400 h 1.16 L 522.156,0 363.143,183.23 275.155,81.842 0,398.903 259.288,259.999 309.287,290 265.156,149.843 467.789,383.335 Z" />
              </g>
            </g>
          </g>
        </g>
      </g>
    </g>
    <g
       id="textlines">
      <g
         id="einsg">
        <g
           aria-label="Yovel"
           id="eins"
           style="text-rendering:geometricPrecision">
          <path
             d="m 85.92041,-19.697266 5.212402,-10.288086 h 5.708008 l -8.288574,15.261231 V -5 h -5.263672 v -9.553223 L 75,-29.985352 h 5.742187 z"
             style="font-weight:700;font-size:35px;font-family:'Open Sans';letter-spacing:1;fill:#f2cb05"
             id="path41" />
          <path
             d="m 104.76221,-14.587402 q 0,2.836914 0.92285,4.28955 0.93994,1.4526372 3.04199,1.4526372 2.08496,0 2.99072,-1.4355472 0.92286,-1.452636 0.92286,-4.30664 0,-2.836914 -0.92286,-4.255371 -0.92285,-1.418457 -3.0249,-1.418457 -2.08496,0 -3.00781,1.418457 -0.92285,1.401367 -0.92285,4.255371 z m 13.21045,0 q 0,4.665527 -2.46094,7.2973629 -2.46094,2.631836 -6.85303,2.631836 -2.75146,0 -4.85351,-1.1962891 -2.10205,-1.2133789 -3.22998,-3.4692383 -1.127934,-2.2558595 -1.127934,-5.2636715 0,-4.682618 2.443844,-7.280274 2.44385,-2.597656 6.87012,-2.597656 2.75147,0 4.85352,1.196289 2.10205,1.196289 3.22998,3.435059 1.12793,2.238769 1.12793,5.246582 z"
             style="font-weight:700;font-size:35px;font-family:'Open Sans';letter-spacing:1;fill:#f2cb05"
             id="path43" />
          <path
             d="m 127.8252,-5 -7.28028,-19.106445 h 5.45166 l 3.69141,10.88623 q 0.61523,2.067871 0.76904,3.9135744 h 0.10254 q 0.0854,-1.6406254 0.76904,-3.9135744 l 3.67432,-10.88623 h 5.45166 L 133.17432,-5 Z"
             style="font-weight:700;font-size:35px;font-family:'Open Sans';letter-spacing:1;fill:#f2cb05"
             id="path45" />
          <path
             d="m 152.08447,-20.756836 q -1.65771,0 -2.59765,1.05957 -0.93995,1.042481 -1.07666,2.973633 h 7.31445 q -0.0342,-1.931152 -1.0083,-2.973633 -0.97412,-1.05957 -2.63184,-1.05957 z m 0.73487,16.0986329 q -4.61426,0 -7.21192,-2.5463867 -2.59765,-2.5463868 -2.59765,-7.2119142 0,-4.802246 2.39257,-7.416992 2.40967,-2.631836 6.64795,-2.631836 4.0503,0 6.30616,2.307129 2.25585,2.307129 2.25585,6.374512 v 2.529296 h -12.32177 q 0.0855,2.22168 1.31592,3.4692387 1.23046,1.2475586 3.45214,1.2475586 1.72608,0 3.26416,-0.3588867 1.53809,-0.3588867 3.21289,-1.1450196 v 4.0332032 Q 158.16846,-5.324707 156.61328,-5 q -1.55517,0.3417969 -3.79394,0.3417969 z"
             style="font-weight:700;font-size:35px;font-family:'Open Sans';letter-spacing:1;fill:#f2cb05"
             id="path47" />
          <path
             d="m 171.09717,-5 h -5.2124 v -26.591797 h 5.2124 z"
             style="font-weight:700;font-size:35px;font-family:'Open Sans';letter-spacing:1;fill:#f2cb05"
             id="path49" />
        </g>
      </g>
      <g
         id="zweig"
         transform="translate(0,5)">
        <g
           aria-label="Dein Reisebegleiter"
           id="zwei"
           style="dominant-baseline:text-before-edge;text-rendering:geometricPrecision">
          <path
             d="M 76.775,20.124832 V -0.12516785 h 4.4 q 2.125,0 3.3,0.75 1.2,0.72500005 1.7,2.07500005 0.5,1.35 0.5,3.125 v 8.0499998 q 0,1.875 -0.5,3.3 -0.5,1.4 -1.65,2.175 -1.15,0.775 -3.175,0.775 z m 1.9,-1.425 h 2.55 q 1.6,0 2.35,-0.65 0.75,-0.675 0.95,-1.825 0.2,-1.175 0.2,-2.65 V 6.0248322 q 0,-1.525 -0.275,-2.55 -0.25,-1.05 -1.025,-1.575 -0.75,-0.55 -2.275,-0.55 h -2.475 z"
             style="font-weight:300;font-size:25px;font-family:Oswald;letter-spacing:1;dominant-baseline:text-before-edge;fill:#f24405"
             id="path52" />
          <path
             d="m 94.062109,20.349832 q -1.35,0 -2.225,-0.525 -0.85,-0.55 -1.275,-1.8 -0.4,-1.25 -0.4,-3.325 v -3.65 q 0,-2.1499998 0.425,-3.3499998 0.425,-1.225 1.3,-1.725 0.875,-0.525 2.2,-0.525 1.525,0 2.325,0.65 0.8,0.65 1.1,1.975 0.325,1.3 0.325,3.3499998 v 1.3 h -5.85 v 2.525 q 0,1.4 0.2,2.225 0.225,0.8 0.675,1.15 0.475,0.35 1.2,0.35 0.55,0 1,-0.2 0.45,-0.225 0.7,-0.825 0.275,-0.625 0.275,-1.75 v -1 h 1.775 v 0.8 q 0,1.975 -0.825,3.175 -0.8,1.175 -2.925,1.175 z m -2.075,-8.675 h 4.05 v -1.2 q 0,-1.1499998 -0.125,-1.9499998 -0.125,-0.825 -0.55,-1.25 -0.4,-0.45 -1.3,-0.45 -0.75,0 -1.225,0.325 -0.45,0.325 -0.65,1.175 -0.2,0.825 -0.2,2.3749998 z"
             style="font-weight:300;font-size:25px;font-family:Oswald;letter-spacing:1;dominant-baseline:text-before-edge;fill:#f24405"
             id="path54" />
          <path
             d="M 101.50039,20.124832 V 5.6748322 h 1.825 V 20.124832 Z m 0,-16.4499998 v -2.475 h 1.825 v 2.475 z"
             style="font-weight:300;font-size:25px;font-family:Oswald;letter-spacing:1;dominant-baseline:text-before-edge;fill:#f24405"
             id="path56" />
          <path
             d="M 107.37852,20.124832 V 5.6748322 h 1.825 v 1.5 q 0.7,-0.75 1.575,-1.225 0.875,-0.5 1.9,-0.5 0.725,0 1.225,0.375 0.5,0.35 0.75,1.05 0.25,0.675 0.25,1.65 V 20.124832 h -1.825 V 8.9248322 q 0,-1.125 -0.35,-1.575 -0.325,-0.475 -1.025,-0.475 -0.625,0 -1.275,0.375 -0.65,0.375 -1.225,0.975 V 20.124832 Z"
             style="font-weight:300;font-size:25px;font-family:Oswald;letter-spacing:1;dominant-baseline:text-before-edge;fill:#f24405"
             id="path58" />
          <path
             d="M 125.03672,20.124832 V -0.12516785 h 4.575 q 1.9,0 2.975,0.625 1.1,0.60000005 1.575,1.77500005 0.475,1.15 0.475,2.75 0,1.125 -0.25,2.125 -0.25,1 -0.85,1.7 -0.6,0.7 -1.7,0.925 l 3.1,10.3499998 h -1.85 l -2.975,-9.95 h -3.175 v 9.95 z m 1.9,-11.3499998 h 2.575 q 1.275,0 1.975,-0.425 0.7,-0.425 1,-1.25 0.3,-0.825 0.3,-2.075 0,-1.875 -0.65,-2.8 -0.65,-0.925 -2.575,-0.925 h -2.625 z"
             style="font-weight:300;font-size:25px;font-family:Oswald;letter-spacing:1;dominant-baseline:text-before-edge;fill:#f24405"
             id="path60" />
          <path
             d="m 142.03086,20.349832 q -1.35,0 -2.225,-0.525 -0.85,-0.55 -1.275,-1.8 -0.4,-1.25 -0.4,-3.325 v -3.65 q 0,-2.1499998 0.425,-3.3499998 0.425,-1.225 1.3,-1.725 0.875,-0.525 2.2,-0.525 1.525,0 2.325,0.65 0.8,0.65 1.1,1.975 0.325,1.3 0.325,3.3499998 v 1.3 h -5.85 v 2.525 q 0,1.4 0.2,2.225 0.225,0.8 0.675,1.15 0.475,0.35 1.2,0.35 0.55,0 1,-0.2 0.45,-0.225 0.7,-0.825 0.275,-0.625 0.275,-1.75 v -1 h 1.775 v 0.8 q 0,1.975 -0.825,3.175 -0.8,1.175 -2.925,1.175 z m -2.075,-8.675 h 4.05 v -1.2 q 0,-1.1499998 -0.125,-1.9499998 -0.125,-0.825 -0.55,-1.25 -0.4,-0.45 -1.3,-0.45 -0.75,0 -1.225,0.325 -0.45,0.325 -0.65,1.175 -0.2,0.825 -0.2,2.3749998 z"
             style="font-weight:300;font-size:25px;font-family:Oswald;letter-spacing:1;dominant-baseline:text-before-edge;fill:#f24405"
             id="path62" />
          <path
             d="M 149.46914,20.124832 V 5.6748322 h 1.825 V 20.124832 Z m 0,-16.4499998 v -2.475 h 1.825 v 2.475 z"
             style="font-weight:300;font-size:25px;font-family:Oswald;letter-spacing:1;dominant-baseline:text-before-edge;fill:#f24405"
             id="path64" />
          <path
             d="m 158.64727,20.349832 q -1.725,0 -2.75,-1.1 -1.025,-1.125 -1.175,-3 l 1.525,-0.475 q 0.15,1.675 0.775,2.45 0.625,0.75 1.75,0.75 0.95,0 1.45,-0.525 0.525,-0.55 0.525,-1.525 0,-0.7 -0.425,-1.4 -0.425,-0.725 -1.325,-1.5 l -1.975,-1.7 q -0.975,-0.825 -1.475,-1.65 -0.5,-0.8249998 -0.5,-1.9749998 0,-1.05 0.425,-1.75 0.45,-0.725 1.225,-1.1 0.775,-0.4 1.8,-0.4 1.65,0 2.5,1.075 0.85,1.05 0.925,2.725 l -1.3,0.425 q -0.05,-0.975 -0.3,-1.6 -0.25,-0.65 -0.7,-0.95 -0.425,-0.3 -1.05,-0.3 -0.825,0 -1.35,0.475 -0.5,0.45 -0.5,1.275 0,0.65 0.25,1.15 0.25,0.4999998 0.925,1.1249998 l 2.05,1.825 q 0.6,0.525 1.15,1.125 0.55,0.6 0.9,1.35 0.35,0.725 0.35,1.725 0,1.125 -0.475,1.9 -0.45,0.75 -1.275,1.175 -0.825,0.4 -1.95,0.4 z"
             style="font-weight:300;font-size:25px;font-family:Oswald;letter-spacing:1;dominant-baseline:text-before-edge;fill:#f24405"
             id="path66" />
          <path
             d="m 169.0543,20.349832 q -1.35,0 -2.225,-0.525 -0.85,-0.55 -1.275,-1.8 -0.4,-1.25 -0.4,-3.325 v -3.65 q 0,-2.1499998 0.425,-3.3499998 0.425,-1.225 1.3,-1.725 0.875,-0.525 2.2,-0.525 1.525,0 2.325,0.65 0.8,0.65 1.1,1.975 0.325,1.3 0.325,3.3499998 v 1.3 h -5.85 v 2.525 q 0,1.4 0.2,2.225 0.225,0.8 0.675,1.15 0.475,0.35 1.2,0.35 0.55,0 1,-0.2 0.45,-0.225 0.7,-0.825 0.275,-0.625 0.275,-1.75 v -1 h 1.775 v 0.8 q 0,1.975 -0.825,3.175 -0.8,1.175 -2.925,1.175 z m -2.075,-8.675 h 4.05 v -1.2 q 0,-1.1499998 -0.125,-1.9499998 -0.125,-0.825 -0.55,-1.25 -0.4,-0.45 -1.3,-0.45 -0.75,0 -1.225,0.325 -0.45,0.325 -0.65,1.175 -0.2,0.825 -0.2,2.3749998 z"
             style="font-weight:300;font-size:25px;font-family:Oswald;letter-spacing:1;dominant-baseline:text-before-edge;fill:#f24405"
             id="path68" />
          <path
             d="m 180.71758,20.349832 q -0.875,0 -1.525,-0.45 -0.625,-0.45 -1.05,-0.925 v 1.15 h -1.825 V -0.12516785 h 1.825 V 6.8748322 q 0.425,-0.55 1.1,-0.975 0.675,-0.45 1.65,-0.45 1.05,0 1.7,0.5 0.65,0.475 1,1.3 0.35,0.825 0.475,1.85 0.125,1.0249998 0.125,2.0999998 v 3.05 q 0,1.85 -0.325,3.225 -0.3,1.35 -1.05,2.125 -0.75,0.75 -2.1,0.75 z m -0.325,-1.45 q 0.85,0 1.25,-0.525 0.425,-0.525 0.55,-1.55 0.15,-1.05 0.15,-2.525 v -3.1 q 0,-1.3999998 -0.15,-2.3499998 -0.125,-0.975 -0.55,-1.475 -0.4,-0.5 -1.275,-0.5 -0.675,0 -1.275,0.375 -0.575,0.375 -0.95,0.75 v 9.8499998 q 0.4,0.425 0.975,0.75 0.575,0.3 1.275,0.3 z"
             style="font-weight:300;font-size:25px;font-family:Oswald;letter-spacing:1;dominant-baseline:text-before-edge;fill:#f24405"
             id="path70" />
          <path
             d="m 191.31797,20.349832 q -1.35,0 -2.225,-0.525 -0.85,-0.55 -1.275,-1.8 -0.4,-1.25 -0.4,-3.325 v -3.65 q 0,-2.1499998 0.425,-3.3499998 0.425,-1.225 1.3,-1.725 0.875,-0.525 2.2,-0.525 1.525,0 2.325,0.65 0.8,0.65 1.1,1.975 0.325,1.3 0.325,3.3499998 v 1.3 h -5.85 v 2.525 q 0,1.4 0.2,2.225 0.225,0.8 0.675,1.15 0.475,0.35 1.2,0.35 0.55,0 1,-0.2 0.45,-0.225 0.7,-0.825 0.275,-0.625 0.275,-1.75 v -1 h 1.775 v 0.8 q 0,1.975 -0.825,3.175 -0.8,1.175 -2.925,1.175 z m -2.075,-8.675 h 4.05 v -1.2 q 0,-1.1499998 -0.125,-1.9499998 -0.125,-0.825 -0.55,-1.25 -0.4,-0.45 -1.3,-0.45 -0.75,0 -1.225,0.325 -0.45,0.325 -0.65,1.175 -0.2,0.825 -0.2,2.3749998 z"
             style="font-weight:300;font-size:25px;font-family:Oswald;letter-spacing:1;dominant-baseline:text-before-edge;fill:#f24405"
             id="path72" />
          <path
             d="m 202.23125,24.874832 q -1.425,0 -2.475,-0.275 -1.05,-0.275 -1.625,-0.875 -0.55,-0.575 -0.55,-1.475 0,-0.725 0.35,-1.325 0.35,-0.6 0.9,-1.05 0.55,-0.475 1.125,-0.775 -0.825,-0.225 -1.225,-0.625 -0.375,-0.4 -0.375,-0.95 0,-0.75 0.45,-1.35 0.475,-0.6 1.275,-1.275 -1,-0.7 -1.425,-1.8 -0.4,-1.1 -0.4,-2.6 0,-1.3999998 0.425,-2.5249998 0.45,-1.15 1.325,-1.825 0.9,-0.7 2.3,-0.7 1.275,0 2,0.525 0.725,0.525 1.1,1.275 0.225,-0.35 0.775,-0.85 0.55,-0.525 1.175,-0.775 l 0.375,-0.125 0.5,1.275 q -0.4,0.075 -0.875,0.3 -0.475,0.2 -0.9,0.45 -0.4,0.25 -0.6,0.5 0.175,0.45 0.3,1.225 0.15,0.7749998 0.15,1.2999998 0,1.425 -0.4,2.575 -0.375,1.15 -1.25,1.825 -0.85,0.65 -2.325,0.65 -0.375,0 -0.8,-0.075 -0.4,-0.075 -0.675,-0.15 -0.35,0.375 -0.675,0.825 -0.3,0.425 -0.3,0.825 0,0.35 0.275,0.55 0.3,0.175 0.925,0.25 l 2.3,0.35 q 1.75,0.25 2.675,1.05 0.95,0.8 0.95,2.3 0,1.125 -0.625,1.875 -0.6,0.75 -1.675,1.1 -1.05,0.375 -2.475,0.375 z m 0.075,-1.475 q 1.45,0 2.35,-0.45 0.9,-0.425 0.9,-1.4 0,-0.5 -0.225,-0.875 -0.2,-0.375 -0.8,-0.625 -0.575,-0.275 -1.7,-0.45 l -1.85,-0.25 q -0.375,0.25 -0.8,0.625 -0.425,0.35 -0.75,0.8 -0.3,0.45 -0.3,1.025 0,0.825 0.775,1.2 0.8,0.4 2.4,0.4 z m 0.025,-9.125 q 0.8,0 1.25,-0.325 0.475,-0.35 0.7,-0.9 0.25,-0.55 0.325,-1.225 0.1,-0.675 0.1,-1.325 0,-0.6499998 -0.1,-1.2999998 -0.1,-0.65 -0.35,-1.2 -0.25,-0.575 -0.725,-0.9 -0.45,-0.35 -1.2,-0.35 -0.75,0 -1.25,0.35 -0.475,0.35 -0.75,0.925 -0.25,0.55 -0.35,1.2 -0.075,0.65 -0.075,1.2749998 0,0.6 0.075,1.275 0.075,0.675 0.325,1.25 0.275,0.55 0.75,0.9 0.5,0.35 1.275,0.35 z"
             style="font-weight:300;font-size:25px;font-family:Oswald;letter-spacing:1;dominant-baseline:text-before-edge;fill:#f24405"
             id="path74" />
          <path
             d="M 210.59727,20.124832 V -0.12516785 h 1.825 V 20.124832 Z"
             style="font-weight:300;font-size:25px;font-family:Oswald;letter-spacing:1;dominant-baseline:text-before-edge;fill:#f24405"
             id="path76" />
          <path
             d="m 220.00156,20.349832 q -1.35,0 -2.225,-0.525 -0.85,-0.55 -1.275,-1.8 -0.4,-1.25 -0.4,-3.325 v -3.65 q 0,-2.1499998 0.425,-3.3499998 0.425,-1.225 1.3,-1.725 0.875,-0.525 2.2,-0.525 1.525,0 2.325,0.65 0.8,0.65 1.1,1.975 0.325,1.3 0.325,3.3499998 v 1.3 h -5.85 v 2.525 q 0,1.4 0.2,2.225 0.225,0.8 0.675,1.15 0.475,0.35 1.2,0.35 0.55,0 1,-0.2 0.45,-0.225 0.7,-0.825 0.275,-0.625 0.275,-1.75 v -1 h 1.775 v 0.8 q 0,1.975 -0.825,3.175 -0.8,1.175 -2.925,1.175 z m -2.075,-8.675 h 4.05 v -1.2 q 0,-1.1499998 -0.125,-1.9499998 -0.125,-0.825 -0.55,-1.25 -0.4,-0.45 -1.3,-0.45 -0.75,0 -1.225,0.325 -0.45,0.325 -0.65,1.175 -0.2,0.825 -0.2,2.3749998 z"
             style="font-weight:300;font-size:25px;font-family:Oswald;letter-spacing:1;dominant-baseline:text-before-edge;fill:#f24405"
             id="path78" />
          <path
             d="M 227.43984,20.124832 V 5.6748322 h 1.825 V 20.124832 Z m 0,-16.4499998 v -2.475 h 1.825 v 2.475 z"
             style="font-weight:300;font-size:25px;font-family:Oswald;letter-spacing:1;dominant-baseline:text-before-edge;fill:#f24405"
             id="path80" />
          <path
             d="m 236.74297,20.299832 q -1.05,0 -1.625,-0.4 -0.55,-0.425 -0.775,-1.125 -0.2,-0.725 -0.2,-1.65 V 6.8748322 h -1.775 v -1.2 h 1.775 v -4.475 h 1.825 v 4.475 h 2.4 v 1.2 h -2.4 V 16.949832 q 0,1.05 0.225,1.5 0.25,0.425 1.05,0.425 0.225,0 0.5,-0.025 0.3,-0.05 0.55,-0.1 v 1.4 q -0.375,0.075 -0.775,0.1 -0.4,0.05 -0.775,0.05 z"
             style="font-weight:300;font-size:25px;font-family:Oswald;letter-spacing:1;dominant-baseline:text-before-edge;fill:#f24405"
             id="path82" />
          <path
             d="m 244.92539,20.349832 q -1.35,0 -2.225,-0.525 -0.85,-0.55 -1.275,-1.8 -0.4,-1.25 -0.4,-3.325 v -3.65 q 0,-2.1499998 0.425,-3.3499998 0.425,-1.225 1.3,-1.725 0.875,-0.525 2.2,-0.525 1.525,0 2.325,0.65 0.8,0.65 1.1,1.975 0.325,1.3 0.325,3.3499998 v 1.3 h -5.85 v 2.525 q 0,1.4 0.2,2.225 0.225,0.8 0.675,1.15 0.475,0.35 1.2,0.35 0.55,0 1,-0.2 0.45,-0.225 0.7,-0.825 0.275,-0.625 0.275,-1.75 v -1 h 1.775 v 0.8 q 0,1.975 -0.825,3.175 -0.8,1.175 -2.925,1.175 z m -2.075,-8.675 h 4.05 v -1.2 q 0,-1.1499998 -0.125,-1.9499998 -0.125,-0.825 -0.55,-1.25 -0.4,-0.45 -1.3,-0.45 -0.75,0 -1.225,0.325 -0.45,0.325 -0.65,1.175 -0.2,0.825 -0.2,2.3749998 z"
             style="font-weight:300;font-size:25px;font-family:Oswald;letter-spacing:1;dominant-baseline:text-before-edge;fill:#f24405"
             id="path84" />
          <path
             d="M 252.28867,20.124832 V 5.6748322 h 1.85 v 1.975 q 0.7,-1.15 1.6,-1.625 0.9,-0.5 1.725,-0.5 0.075,0 0.15,0 0.075,0 0.175,0.025 v 1.95 q -0.175,-0.075 -0.425,-0.1 -0.25,-0.05 -0.475,-0.05 -0.85,0 -1.55,0.4 -0.675,0.4 -1.2,1.275 V 20.124832 Z"
             style="font-weight:300;font-size:25px;font-family:Oswald;letter-spacing:1;dominant-baseline:text-before-edge;fill:#f24405"
             id="path86" />
        </g>
      </g>
    </g>
  </g>
</svg>
